<?xml version="1.0" encoding="UTF-8"?>
<svg width="26px" height="26px" viewBox="0 0 26 26" version="1.1" xmlns="http://www.w3.org/2000/svg" xmlns:xlink="http://www.w3.org/1999/xlink">
    <!-- Generator: Sketch 52 (66869) - http://www.bohemiancoding.com/sketch -->
    <title>facebook </title>
    <desc>Created with Sketch.</desc>
    <g id="Page-1" stroke="none" stroke-width="1" fill="none" fill-rule="evenodd">
        <g id="08-contacto-v2-copy-2" transform="translate(-1370.000000, -5.000000)" fill="#F0F2F5">
            <g id="facebook-" transform="translate(1370.000000, 5.000000)">
                <path d="M26,4.33362222 C26,2.0566 23.9442667,0 21.6666667,0 L4.33333333,0 C2.05573333,0 0,2.0566 0,4.33362222 L0,21.6663778 C0,23.9434 2.05573333,26 4.33362222,26 L13,26 L13,16.1777778 L9.82222222,16.1777778 L9.82222222,11.8444444 L13,11.8444444 L13,10.1561778 C13,7.24446667 15.1863111,4.62222222 17.875,4.62222222 L21.3777778,4.62222222 L21.3777778,8.95555556 L17.875,8.95555556 C17.4916444,8.95555556 17.0444444,9.42095556 17.0444444,10.1180444 L17.0444444,11.8444444 L21.3777778,11.8444444 L21.3777778,16.1777778 L17.0444444,16.1777778 L17.0444444,26 L21.6666667,26 C23.9442667,26 26,23.9434 26,21.6663778 L26,4.33362222 Z" id="Facebook__x28_alt_x29_"></path>
            </g>
        </g>
    </g>
</svg>