<?xml version="1.0" encoding="UTF-8"?>
<svg width="26px" height="26px" viewBox="0 0 26 26" version="1.1" xmlns="http://www.w3.org/2000/svg" xmlns:xlink="http://www.w3.org/1999/xlink">
    <!-- Generator: Sketch 52 (66869) - http://www.bohemiancoding.com/sketch -->
    <title>insta</title>
    <desc>Created with Sketch.</desc>
    <g id="Page-1" stroke="none" stroke-width="1" fill="none" fill-rule="evenodd">
        <g id="08-contacto-v2-copy-2" transform="translate(-1293.000000, -5.000000)" fill="#F0F2F5" fill-rule="nonzero">
            <g id="insta" transform="translate(1293.000000, 5.000000)">
                <path d="M21.5427333,0 L4.45726667,0 C1.99564444,0 0,1.99564444 0,4.45726667 L0,21.5430222 C0,24.0043556 1.99564444,26 4.45726667,26 L21.5430222,26 C24.0043556,26 26,24.0043556 26,21.5427333 L26,4.45726667 C26,1.99564444 24.0043556,0 21.5427333,0 Z M8.94255556,10.7458 C8.94428889,10.7429111 8.94631111,10.7397333 8.94862222,10.7362667 C9.00033333,10.6432444 9.0558,10.5528222 9.11386667,10.4638444 C9.14795556,10.4115556 9.18406667,10.3612889 9.22017778,10.3104444 C9.26033333,10.2544 9.30135556,10.1995111 9.34382222,10.1452 C9.38022222,10.0984 9.41575556,10.0516 9.45417778,10.0065333 C9.5264,9.92102222 9.6018,9.83811111 9.68008889,9.7578 C9.71822222,9.7188 9.75837778,9.68124444 9.79795556,9.6434 C9.85428889,9.58966667 9.91177778,9.53737778 9.971,9.48653333 C10.0105778,9.45244444 10.0495778,9.41806667 10.0903111,9.38513333 C10.1818889,9.31117778 10.2766444,9.24011111 10.3737111,9.17308889 C10.4089556,9.14882222 10.4459333,9.12628889 10.4820444,9.10317778 C10.5588889,9.0532 10.6371778,9.00553333 10.7172,8.95988889 C10.7556222,8.93822222 10.7937556,8.91597778 10.8327556,8.89517778 C10.9439778,8.83653333 11.0569333,8.78106667 11.1727778,8.73137778 C11.1996444,8.71982222 11.2273778,8.71028889 11.2542444,8.69931111 C11.3536222,8.65886667 11.4544444,8.62188889 11.5572889,8.58837778 C11.5939778,8.57624444 11.6303778,8.5644 11.6670667,8.55342222 C11.7947556,8.51528889 11.9236,8.48091111 12.0553333,8.45375556 C12.0697778,8.45057778 12.0850889,8.44884444 12.0995333,8.44595556 C12.2205778,8.42197778 12.3436444,8.40406667 12.4675778,8.38962222 C12.5042667,8.38557778 12.5409556,8.38182222 12.5773556,8.37835556 C12.7166,8.36564444 12.8572889,8.35697778 12.9997111,8.35697778 C13.1421333,8.35697778 13.2825333,8.36564444 13.4220667,8.37835556 C13.4584667,8.38182222 13.4951556,8.38557778 13.5315556,8.38962222 C13.6560667,8.40377778 13.7788444,8.42197778 13.8998889,8.44595556 C13.9146222,8.44884444 13.9299333,8.45057778 13.9440889,8.45375556 C14.0758222,8.48091111 14.2046667,8.51528889 14.3323556,8.55342222 C14.3690444,8.56468889 14.4051556,8.57653333 14.4418444,8.58837778 C14.5446889,8.62217778 14.6460889,8.65944444 14.7457556,8.6996 C14.7729111,8.71057778 14.8000667,8.71982222 14.8263556,8.73137778 C14.9422,8.78106667 15.0554444,8.83653333 15.1669556,8.89546667 C15.2053778,8.91568889 15.2432222,8.93764444 15.2813556,8.95902222 C15.3622444,9.00466667 15.4414,9.0532 15.5194,9.10346667 C15.5543556,9.12657778 15.5907556,9.14824444 15.6251333,9.17222222 C15.7230667,9.23953333 15.8181111,9.31088889 15.9102667,9.38542222 C15.9501333,9.41777778 15.9885556,9.45157778 16.0272667,9.48508889 C16.0870667,9.5368 16.1457111,9.58995556 16.2029111,9.64455556 C16.2416222,9.68182222 16.2812,9.71822222 16.3181778,9.75664444 C16.3973333,9.83724444 16.4730222,9.92102222 16.5461111,10.0074 C16.5833778,10.0513111 16.6183333,10.0972444 16.6538667,10.1428889 C16.6972,10.1983556 16.7393778,10.2546889 16.7804,10.3121778 C16.8159333,10.3618667 16.8514667,10.4115556 16.8849778,10.4626889 C17.3622222,11.1924222 17.6421556,12.0631333 17.6421556,13 C17.6421556,15.5636 15.5630222,17.6427333 12.9994222,17.6427333 C10.4352444,17.6427333 8.35668889,15.5636 8.35668889,13 C8.35726667,12.1812889 8.57075556,11.414 8.94255556,10.7458 Z M23.2142444,20.1572222 C23.2142444,21.9624889 21.7507333,23.4254222 19.9457556,23.4254222 L6.05424444,23.4254222 C4.24897778,23.4254222 2.78575556,21.9624889 2.78575556,20.1572222 L2.78575556,10.7458 L5.92193333,10.7458 C5.69544444,11.4570444 5.57151111,12.2142222 5.57151111,13 C5.57151111,17.1022222 8.89777778,20.4284889 13,20.4284889 C17.1022222,20.4284889 20.4284889,17.1022222 20.4284889,13 C20.4284889,12.2139333 20.3045556,11.4570444 20.0780667,10.7458 L23.2142444,10.7458 L23.2142444,20.1572222 Z M23.2142444,5.2 C23.2142444,5.40511111 23.0481333,5.57151111 22.8427333,5.57151111 L20.8,5.57151111 C20.5946,5.57151111 20.4284889,5.4054 20.4284889,5.2 L20.4284889,3.15726667 C20.4284889,2.95215556 20.5946,2.78575556 20.8,2.78575556 L22.8427333,2.78575556 C23.0481333,2.78575556 23.2142444,2.95215556 23.2142444,3.15726667 L23.2142444,5.2 Z" id="Shape"></path>
            </g>
        </g>
    </g>
</svg>