<?xml version="1.0" encoding="UTF-8"?>
<svg width="33px" height="26px" viewBox="0 0 33 26" version="1.1" xmlns="http://www.w3.org/2000/svg" xmlns:xlink="http://www.w3.org/1999/xlink">
    <!-- Generator: Sketch 52 (66869) - http://www.bohemiancoding.com/sketch -->
    <title>twitter</title>
    <desc>Created with Sketch.</desc>
    <g id="Page-1" stroke="none" stroke-width="1" fill="none" fill-rule="evenodd">
        <g id="08-contacto-v2-copy-2" transform="translate(-1328.000000, -5.000000)" fill="#F0F2F5" fill-rule="nonzero">
            <g id="twitter" transform="translate(1328.000000, 5.000000)">
                <g id="Group">
                    <path d="M31.208782,4.37021277 C30.2088379,4.86808511 29.1036365,5.25531915 27.9984351,5.47659574 C26.8932337,3.59574468 25.0512314,2.26808511 22.9460859,1.93617021 C22.5776854,1.88085106 22.209285,1.82553191 21.8408845,1.82553191 C18.2621372,1.82553191 15.2623048,4.53617021 14.7360185,8.24255319 C14.6833898,8.62978723 14.6307612,9.07234043 14.6307612,9.45957447 C10.5257275,7.85531915 7.15749468,4.64680851 5.26286374,0.442553191 C5.15760646,0.221276596 4.94709191,0.110638298 4.73657736,0.0553191489 C4.52606282,0.0553191489 4.31554827,0.165957447 4.15766235,0.331914894 C2.94720369,2.26808511 2.63143187,4.59148936 3.26297552,6.74893617 C3.15771824,6.74893617 3.05246097,6.69361702 2.99983233,6.74893617 C2.73668914,6.80425532 2.57880323,6.97021277 2.52617459,7.24680851 C1.94725958,9.57021277 2.52617459,12.0595745 3.89451917,13.8851064 C3.73663325,13.8851064 3.63137598,13.9404255 3.5261187,14.0510638 C3.31560416,14.2170213 3.26297552,14.493617 3.31560416,14.7148936 C3.89451917,17.093617 5.52600693,19.0297872 7.63115242,19.8595745 C5.42074965,20.6893617 3.10508961,21.0212766 0.736800923,20.8553191 C0.473657736,20.8553191 0.21051455,21.0212766 0.105257275,21.2978723 C8.37580005e-13,21.5744681 0.105257275,21.8510638 0.315771824,22.0723404 C2.68406051,23.9531915 5.47337829,25.1702128 8.42058198,25.6680851 C9.36789745,25.8340426 10.2625843,25.8893617 11.2098998,25.8893617 C19.3147099,25.8893617 26.4722046,20.1914894 28.6299787,12.0042553 C28.7878646,11.5617021 28.8931219,11.0638298 28.9457506,10.6212766 C28.9457506,10.5106383 28.9983792,10.4 28.9983792,10.2893617 C29.0510078,10.1234043 29.0510078,9.95744681 29.1036365,9.79148936 C30.3140951,8.46382979 31.3140392,6.97021277 32.0508402,5.3106383 C32.1560974,5.0893617 32.1034688,4.75744681 31.9455829,4.59148936 C31.7350683,4.31489362 31.4192965,4.25957447 31.208782,4.37021277 Z M22.9987145,8.13191489 C22.3145423,8.0212766 21.8408845,7.35744681 21.9461418,6.63829787 C22.0513991,5.91914894 22.6829427,5.4212766 23.367115,5.53191489 C24.0512873,5.64255319 24.524945,6.30638298 24.4196877,7.02553191 C24.3144305,7.74468085 23.6828868,8.24255319 22.9987145,8.13191489 Z" id="Shape"></path>
                </g>
            </g>
        </g>
    </g>
</svg>